<?xml version="1.0" encoding="UTF-8" standalone="no"?>
<!-- Created with Inkscape (http://www.inkscape.org/) -->

<svg
   xmlns:dc="http://purl.org/dc/elements/1.1/"
   xmlns:cc="http://creativecommons.org/ns#"
   xmlns:rdf="http://www.w3.org/1999/02/22-rdf-syntax-ns#"
   xmlns:svg="http://www.w3.org/2000/svg"
   xmlns="http://www.w3.org/2000/svg"
   xmlns:sodipodi="http://sodipodi.sourceforge.net/DTD/sodipodi-0.dtd"
   xmlns:inkscape="http://www.inkscape.org/namespaces/inkscape"
   width="256"
   height="256"
   id="svg2"
   version="1.1"
   inkscape:version="0.48.2 r9819"
   sodipodi:docname="favicon.svg"
   inkscape:export-filename="/tmp/choko.png"
   inkscape:export-xdpi="90"
   inkscape:export-ydpi="90">
  <defs
     id="defs4" />
  <sodipodi:namedview
     id="base"
     pagecolor="#ffffff"
     bordercolor="#666666"
     borderopacity="1.0"
     inkscape:pageopacity="0.0"
     inkscape:pageshadow="2"
     inkscape:zoom="1"
     inkscape:cx="119.61049"
     inkscape:cy="128"
     inkscape:document-units="px"
     inkscape:current-layer="layer1"
     showgrid="false"
     inkscape:window-width="1280"
     inkscape:window-height="752"
     inkscape:window-x="0"
     inkscape:window-y="0"
     inkscape:window-maximized="1">
    <inkscape:grid
       type="xygrid"
       id="grid2992"
       empspacing="5"
       visible="true"
       enabled="true"
       snapvisiblegridlinesonly="true" />
  </sodipodi:namedview>
  <metadata
     id="metadata7">
    <rdf:RDF>
      <cc:Work
         rdf:about="">
        <dc:format>image/svg+xml</dc:format>
        <dc:type
           rdf:resource="http://purl.org/dc/dcmitype/StillImage" />
        <dc:title></dc:title>
      </cc:Work>
    </rdf:RDF>
  </metadata>
  <g
     inkscape:label="Layer 1"
     inkscape:groupmode="layer"
     id="layer1"
     transform="translate(0,-796.36217)">
    <g
       id="g6773"
       transform="matrix(0.98994801,0,0,0.98994801,1.2874487,9.2996406)">
      <path
         sodipodi:nodetypes="cccccccccccccccccccccccccccccccccccccccccccc"
         inkscape:connector-curvature="0"
         id="path3057"
         d="m 146.83752,797.13434 c -7.47687,0.35067 -14.20433,3.88175 -20.80329,6.84613 -11.23224,5.33542 -21.63718,12.02595 -32.100798,18.53863 -5.33712,2.70644 -11.045307,4.48717 -15.960273,7.88682 -12.047169,7.52189 -19.654779,19.46076 -26.147003,31.26695 -5.727535,10.12169 -10.131776,20.86485 -14.663538,31.47373 -1.279562,1.89831 -4.32299,0.19323 -5.682082,1.79462 0.01002,2.00408 1.996892,3.59461 2.819832,5.37002 -0.150158,4.66 -1.442276,9.45707 -2.292213,14.13355 -0.356088,2.68278 -1.29208,5.22336 -3.132371,7.34733 -0.790232,0.78529 -1.400164,2.37381 0.138943,2.75041 0.867512,0.24413 2.202545,0.25967 1.908322,1.45561 1.384675,19.53636 1.402779,39.62324 8.725094,58.21664 4.49352,12.35867 13.398321,22.71782 23.315708,31.69022 10.137503,9.2549 21.125328,17.7873 30.943783,27.3071 8.984166,7.3502 21.656526,9.7252 33.336546,8.4733 6.15003,-0.6744 11.93473,-3.1255 16.53788,-7.0029 1.91107,-1.4702 4.67094,-0.4028 6.92535,-0.5974 9.74539,0.2183 19.78482,-2.2074 27.26476,-8.1952 5.40503,-4.2625 7.81879,-11.7035 6.83881,-18.6353 -0.12267,-5.5452 -2.36373,-10.7863 -4.12539,-15.9721 0.0686,-5.17326 0.49317,-10.58189 -1.90924,-15.38101 -2.96882,-7.33686 -10.56635,-11.76113 -18.06604,-14.587 -2.78216,-0.62118 -4.40636,-2.86218 -6.14301,-4.75794 -4.16118,-4.51545 -10.89958,-5.36047 -16.96046,-5.18187 -1.17708,0.0294 -2.94759,0.3007 -2.06916,-1.16908 2.097,-5.86125 5.22672,-11.99432 11.04254,-15.39386 10.29021,-6.04397 22.88851,-6.06628 34.48076,-8.33921 8.90595,-1.48336 17.84193,-4.32084 24.50073,-10.23365 4.34092,-3.75597 8.27889,-8.01218 11.72291,-12.4741 1.03409,-0.19749 3.43572,1.20608 2.93753,-0.41874 -1.15238,-3.80652 1.42314,-7.19084 2.49216,-10.74023 1.37356,-3.42433 2.32218,-7.13271 3.20064,-10.60581 0.9796,0.23582 2.80795,0.49612 2.77672,-0.92722 -0.0861,-2.39008 -1.55892,-4.62816 -0.85393,-7.07703 0.88951,-6.71746 -1.09627,-13.39073 -1.32856,-20.09794 -0.65003,-8.51549 -0.93733,-17.6986 -6.13694,-25.02858 -2.82145,-3.77863 -7.62645,-5.67562 -11.54642,-8.20541 -1.70655,-2.76374 -1.78777,-6.28736 -3.30204,-9.2124 -2.27355,-5.78143 -6.71369,-10.93378 -12.86509,-13.41978 -7.96033,-3.60736 -16.9137,-4.43024 -25.54793,-5.4736 -4.78326,-1.45507 -9.22377,-4.07368 -14.28431,-4.8881 -1.97153,-0.37749 -3.96795,-0.59066 -5.98893,-0.53564 z"
         style="fill:#78c06a" />
      <path
         d="m 114.3125,807.75 a 1.9177948,1.9177948 0 0 0 -0.65625,0.15625 c -6.064,2.81225 -11.42553,6.61462 -16.78125,10.03125 a 1.9177948,1.9177948 0 0 0 -0.1875,0.125 c -0.653308,0.53163 -2.556909,1.17012 -3.46875,3.34375 a 1.9177948,1.9177948 0 0 0 0.375,2.03125 c 0.640252,0.70631 1.494488,1.14124 2.28125,1.28125 0.786762,0.14001 1.481619,0.0652 2.09375,-0.0312 1.224262,-0.19287 2.24964,-0.45707 2.5625,-0.4375 a 1.9177948,1.9177948 0 0 0 0.375,0 c 9.67572,-1.25342 19.39415,-2.78149 28.8125,-5.65625 0.0923,-0.0282 0.18905,-0.0341 0.28125,-0.0625 l -0.0312,-0.0625 c 1.285,-0.29112 2.20653,-1.09519 2.65625,-2.25 0.24186,-0.62106 0.36317,-1.41655 0.0312,-2.21875 -0.33192,-0.8022 -1.08089,-1.41708 -1.84375,-1.6875 a 1.9177948,1.9177948 0 0 0 -0.28125,-0.0625 c -4.34231,-0.86198 -8.62484,-0.41405 -12.40625,-0.78125 -0.0633,-0.0103 -0.064,0.008 -0.125,0 -0.42855,-0.0595 -0.57702,-0.0578 -0.875,-0.0625 0.0856,-0.2886 0.22406,-0.3979 0.25,-0.78125 0.038,-0.56115 -0.0482,-1.44454 -0.71875,-2.125 -0.67056,-0.68046 -1.61626,-0.80851 -2.34375,-0.75 z m 2.4375,4.8125 c 5.9e-4,0.002 -0.001,0.0654 0,0.0625 l -0.0312,0 c 0.009,-0.0154 0.0225,-0.0467 0.0312,-0.0625 z m 74.9375,24.46875 c -0.13874,-0.0151 -0.51788,-0.0846 -1.0625,0.125 a 1.9177948,1.9177948 0 0 0 -0.1875,0.0625 c -1.55856,0.80616 -2.21065,2.13391 -2.71875,2.90625 -0.5081,0.77234 -0.66294,0.97496 -1.09375,1.0625 a 1.9177948,1.9177948 0 0 0 -0.59375,0.21875 c -0.71954,0.42298 -1.37732,1.17235 -1.5625,2.03125 -0.18518,0.8589 0.0448,1.65073 0.34375,2.21875 0.55727,1.05879 1.36276,1.68538 2.3125,2.125 0.0693,0.0321 0.11641,0.0952 0.1875,0.125 3.27086,1.92518 6.28983,5.23346 10.90625,6.875 a 1.9177948,1.9177948 0 0 0 1.0625,0.0625 c 1.47487,-0.31304 2.31265,-1.21909 2.875,-1.71875 0.56235,-0.49966 0.73839,-0.61441 0.96875,-0.625 a 1.9177948,1.9177948 0 0 0 0.4375,-0.0625 c 1.74757,-0.50732 3.73661,0.58022 6.75,1 a 1.9177948,1.9177948 0 0 0 0.9375,-0.125 c 0.7866,-0.30882 1.63673,-1.09996 1.84375,-2 0.20702,-0.90004 -0.0353,-1.56112 -0.25,-2.0625 -0.42939,-1.00275 -1.02056,-1.78898 -1.03125,-1.8125 -0.6813,-1.49601 -1.97378,-2.48067 -3.40625,-3.15625 -0.0849,-0.46358 -0.15727,-0.91925 -0.21875,-1.65625 -0.0836,-1.00214 -0.21014,-2.29511 -1,-3.53125 A 1.9177948,1.9177948 0 0 0 205.96875,838.25 c -1.70794,-0.36484 -3.08343,0.52979 -3.875,1.09375 -0.79157,0.56396 -1.25395,0.80335 -1.375,0.8125 a 1.9177948,1.9177948 0 0 0 -0.59375,0.15625 c -1.13073,0.48291 -1.91468,0.22168 -3.1875,-0.46875 -1.27282,-0.69043 -2.70763,-1.86611 -4.53125,-2.65625 a 1.9177948,1.9177948 0 0 0 -0.71875,-0.15625 z m -127.625,3.1875 c -0.472833,0.0691 -0.974768,0.26578 -1.40625,0.6875 a 1.9177948,1.9177948 0 0 0 -0.125,0.125 c -6.290438,7.37362 -10.71823,15.84322 -15.125,23.96875 -4.682169,8.7 -8.263009,17.82247 -12.09375,26.65625 -0.03977,0.0547 -0.03367,0.0502 -0.1875,0.0937 -0.185161,0.0525 -0.554602,0.0865 -1.0625,0.0937 -1.015797,0.0145 -2.705463,-0.16919 -4.21875,1.09375 a 1.9177948,1.9177948 0 0 0 -0.6875,1.59375 c 0.149332,2.1296 1.391725,3.49488 2.125,4.5625 0.733275,1.06762 0.992071,1.55495 0.8125,2.21875 a 1.9177948,1.9177948 0 0 0 -0.03125,0.15625 c -1.059267,5.64805 -1.54975,11.33701 -3.375,16.28125 a 1.9177948,1.9177948 0 0 0 0,0.0625 c -0.106306,0.32322 -0.701355,1.08095 -1.40625,2.0625 -0.704895,0.98155 -1.579913,2.56455 -1.0625,4.375 a 1.9177948,1.9177948 0 0 0 0.0625,0.1875 c 0.361449,0.91663 1.283324,1.50706 1.90625,1.6875 0.267858,0.0776 0.362177,0.0686 0.5625,0.0937 1.302347,17.21523 1.295235,34.97448 6.6875,52.125 0.0027,0.009 -0.0027,0.0218 0,0.0312 3.610745,12.56223 10.900963,23.8778 20.375,33.2188 0.0104,0.01 0.02085,0.021 0.03125,0.031 10.570628,10.6192 22.653937,19.5216 33.3125,29.5938 l 0.03125,-0.031 c 4.266161,4.2383 9.335151,8.2657 15.8125,9.875 0.041,0.012 0.084,0.019 0.125,0.031 7.92593,2.3791 16.47968,3.1468 24.78125,1.5937 l 0,0.031 c 0.033,-0 0.0608,-0.027 0.0937,-0.031 5.59212,-0.7441 10.4649,-3.4181 14.5,-6.7813 a 1.9177948,1.9177948 0 0 0 0.0312,0 c 0.46088,-0.3877 1.06791,-0.5028 2.15625,-0.4687 1.05412,0.033 2.37246,0.2431 3.84375,0.1563 0.0411,3e-4 0.0839,-3e-4 0.125,0 9.35306,0.054 19.42874,-1.6814 27.0625,-7.625 L 177.75,1038 c 0.0186,-0.013 0.0128,-0.049 0.0312,-0.062 0.0185,-0.014 0.0441,-0.017 0.0625,-0.031 l -0.0312,-0.031 c 0.55593,-0.4172 1.04679,-1.0292 1.1875,-1.75 0.14994,-0.768 -0.0605,-1.5164 -0.40625,-2.0625 -0.635,-1.0031 -1.76247,-1.5182 -3,-1.4375 l 0,-0.031 c -0.0565,-5e-4 -0.10016,0.031 -0.15625,0.031 -0.0562,0.01 -0.0996,-0.04 -0.15625,-0.031 l 0,0.031 c -2.29804,0.048 -4.28443,0.7248 -6.0625,1.3125 -1.86323,0.6159 -3.48468,1.1002 -5.09375,1 a 1.9177948,1.9177948 0 0 0 -0.21875,0 c -7.85605,0.3508 -15.8283,-1.2058 -22.1875,-5.3125 a 1.9177948,1.9177948 0 0 0 -0.0625,-0.031 c -4.55615,-2.6575 -9.08691,-5.0364 -12.625,-8.3126 A 1.9177948,1.9177948 0 0 0 129,1021.25 c -3.09243,-2.795 -6.79903,-4.4944 -10.125,-6.3125 -3.32597,-1.8181 -6.20485,-3.6869 -8,-6.4687 a 1.9177948,1.9177948 0 0 0 -0.0937,-0.125 c -6.25158,-8.194 -13.946915,-15.03955 -20.90625,-22.2188 -2.488335,-5.91242 -4.76972,-11.90414 -5.40625,-18.03125 a 1.9177948,1.9177948 0 0 0 0,-0.0937 C 83.519002,961.53232 81.861024,955.27988 81,949.125 c -0.173556,-7.00361 0.0524,-14.15677 -0.59375,-21.34375 a 1.9177948,1.9177948 0 0 0 -1.625,-1.75 c -0.917832,-0.13754 -1.900743,0.0718 -2.625,0.53125 -0.724257,0.45941 -1.162176,1.06148 -1.46875,1.625 -0.613148,1.12704 -0.863546,2.22777 -1.03125,2.625 A 1.9177948,1.9177948 0 0 0 73.59375,931 c -1.802581,5.96332 -2.359902,12.09211 -2.78125,18.03125 a 1.9177948,1.9177948 0 0 0 0,0.0937 c -0.133288,7.63807 -0.770939,15.43255 -0.0625,23.34375 a 1.9177948,1.9177948 0 0 0 0.03125,0.25 c 0.737382,3.28835 0.647747,7.08685 1.75,11.03125 0.406887,3.69354 0.419972,7.77712 1.875,11.875 0.01585,0.0602 0.04597,0.0957 0.0625,0.15625 0.258694,0.9483 0.466777,1.54205 0.8125,2.5 -4.57601,-3.1475 -8.84997,-6.50998 -11.59375,-10.875 -2.33483,-3.67797 -4.30213,-7.70808 -6.8125,-11.625 -1.876406,-4.45069 -2.592398,-9.61849 -4.1875,-14.71875 -0.0031,-0.01 0.0031,-0.0214 0,-0.0312 -1.386958,-7.57555 -1.924063,-15.34306 -2.3125,-23.125 a 1.9177948,1.9177948 0 0 0 -0.03125,-0.34375 c -1.020738,-4.39351 -2.188052,-8.62561 -2.46875,-12.84375 a 1.9177948,1.9177948 0 0 0 0,-0.125 c -0.786887,-6.10891 0.916002,-12.57301 1.28125,-19.4375 0.345562,-6.40853 1.442715,-12.74363 3.09375,-19 a 1.9177948,1.9177948 0 0 0 0.03125,-0.0312 c 2.021544,-8.25262 4.033039,-16.40291 8.15625,-23.59375 a 1.9177948,1.9177948 0 0 0 0.125,-0.21875 c 1.829354,-4.35209 1.88899,-8.5629 3.8125,-11.71875 a 1.9177948,1.9177948 0 0 0 0.1875,-0.375 c 0.603078,-1.72786 2.864061,-4.09881 2.75,-7.59375 A 1.9177948,1.9177948 0 0 0 67.25,842.15625 c -0.348325,-1.23146 -1.217214,-1.63125 -1.90625,-1.84375 -0.363916,-0.11223 -0.808417,-0.16289 -1.28125,-0.0937 z m 31.34375,23.375 c -0.7899,0.10612 -1.712845,0.55945 -2.1875,1.34375 -0.474655,0.7843 -0.439813,1.59881 -0.3125,2.1875 0.250848,1.15991 0.767398,1.90574 1.53125,2.5625 0.01151,0.01 0.01963,0.0214 0.03125,0.0312 0.515696,0.47461 0.64584,1.11753 1.0625,2.4375 a 1.9177948,1.9177948 0 0 0 0.5,0.8125 c 0.665596,0.64293 1.696687,1.0294 2.5625,0.96875 0.865813,-0.0607 1.49394,-0.4103 2,-0.75 1.01213,-0.67939 1.76659,-1.50559 1.96875,-1.65625 a 1.9177948,1.9177948 0 0 0 0.34375,-0.34375 c 0.19464,-0.2484 0.90249,-0.84336 1.59375,-1.625 0.69126,-0.78164 1.54481,-2.18431 1.09375,-3.78125 a 1.9177948,1.9177948 0 0 0 -1.125,-1.25 c -2.76955,-1.13425 -5.406677,-0.44566 -6.9375,-0.75 A 1.9177948,1.9177948 0 0 0 97.25,863.75 c -0.134473,-0.007 -0.704083,-0.24688 -1.75,-0.15625 a 1.9177948,1.9177948 0 0 0 -0.09375,0 z M 85,884.25 c -2.355108,0.34348 -4.087937,1.67157 -5.4375,2.9375 -1.349563,1.26593 -2.437901,2.51944 -3.5,3.21875 a 1.9177948,1.9177948 0 0 0 -0.28125,0.25 c -1.045682,1.04672 -3.624561,1.99727 -4.90625,4.75 a 1.9177948,1.9177948 0 0 0 -0.03125,1.5 c 0.315284,0.82025 1.136982,1.60092 1.96875,1.8125 0.831768,0.21158 1.482019,0.0566 2,-0.0937 1.035963,-0.3008 1.943709,-0.72016 1.9375,-0.71875 a 1.9177948,1.9177948 0 0 0 0.09375,-0.0312 c 0.315719,-0.0883 0.487985,-0.20236 0.75,-0.3125 -0.150062,2.46424 -0.388991,4.94479 -0.53125,7.59375 a 1.9177948,1.9177948 0 0 0 0.21875,1.03125 c 0.418921,0.75657 1.296073,1.41481 2.1875,1.53125 0.891427,0.11644 1.59927,-0.16239 2.125,-0.46875 1.051459,-0.61272 1.668988,-1.34616 2.125,-2.28125 a 1.9177948,1.9177948 0 0 0 0,-0.0312 c 2.639803,-5.52011 4.36074,-11.45811 5.25,-17.375 a 1.9177948,1.9177948 0 0 0 0,-0.0937 c 0.121272,-1.16297 -0.69384,-2.43711 -1.5625,-2.875 C 86.53759,884.15586 85.748534,884.13414 85,884.25 z m 108.4375,19.96875 a 1.9177948,1.9177948 0 0 0 -0.53125,0.1875 c -1.30826,0.73077 -2.05919,1.80746 -2.65625,2.65625 -0.59706,0.84879 -1.07789,1.5225 -1.53125,1.875 A 1.9177948,1.9177948 0 0 0 188.5,909.125 c -3.04271,3.22058 -5.51354,6.58504 -8.59375,9.0625 a 1.9177948,1.9177948 0 0 0 -0.1875,0.15625 c -3.63669,3.66533 -6.55808,7.50323 -10.75,9.46875 a 1.9177948,1.9177948 0 0 0 -0.15625,0.0937 c -5.0105,2.89361 -11.46703,4.99012 -15.90625,10 A 1.9177948,1.9177948 0 0 0 152.5,938.625 c -0.24606,0.79275 -0.13641,2.0124 0.5625,2.75 0.69891,0.7376 1.45842,0.8352 2.03125,0.875 1.09159,0.0758 1.92984,-0.1763 2.5625,-0.375 l 0,0.0312 c 11.51983,-2.8098 24.19992,-2.74386 36.0625,-7.09375 A 1.9177948,1.9177948 0 0 0 193.875,934.75 c 2.68053,-1.24267 6.24371,-2.2879 8.90625,-4.9375 a 1.9177948,1.9177948 0 0 0 0.25,-0.28125 c 0.4049,-0.60972 0.65183,-1.49578 0.4375,-2.3125 -0.21433,-0.81672 -0.78703,-1.37538 -1.3125,-1.6875 -0.88175,-0.52375 -1.77857,-0.59398 -2.71875,-0.375 -5.06767,0.30501 -9.64654,1.74112 -13.84375,1.4375 2.18901,-4.80464 4.97056,-9.44063 8,-13.9375 0.35113,-0.53704 1.15239,-1.37896 1.875,-2.4375 0.72261,-1.05854 1.45222,-2.60218 1,-4.34375 A 1.9177948,1.9177948 0 0 0 195.75,904.78125 c -0.28271,-0.20286 -1.24496,-0.80161 -2.3125,-0.5625 z m -60.625,57.75 a 1.9177948,1.9177948 0 0 0 -0.46875,0.21875 c -1.45144,0.92153 -1.94346,2.55729 -2.0625,3.71875 -0.11904,1.16146 -0.057,2.15481 -0.125,2.59375 a 1.9177948,1.9177948 0 0 0 0,0.375 c 0.20785,4.22596 2.69057,7.45679 4.1875,10.3125 a 1.9177948,1.9177948 0 0 0 0.15625,0.28125 c 3.4949,4.69019 8.42844,8.59828 14.46875,10.375 a 1.9177948,1.9177948 0 0 0 0.0937,0.0312 c 1.49902,0.36404 3.79786,1.98215 6.84375,1.5 a 1.9177948,1.9177948 0 0 0 1.15625,-0.6875 c 0.55753,-0.66982 0.83544,-1.77068 0.625,-2.59375 -0.21044,-0.82307 -0.65414,-1.30736 -1.03125,-1.6875 -0.75423,-0.76027 -1.55835,-1.30794 -1.5625,-1.3125 a 1.9177948,1.9177948 0 0 0 -0.125,-0.15625 c -4.8764,-4.3011 -10.92028,-6.45352 -13.9375,-10.625 -0.008,-0.0117 -0.0229,-0.0195 -0.0312,-0.0312 -1.92647,-3.32977 -3.35861,-6.99938 -4.71875,-10.6875 a 1.9177948,1.9177948 0 0 0 -0.21875,-0.4375 c -0.63306,-0.91892 -1.85362,-1.61687 -3.25,-1.1875 z"
         id="path6769"
         style="fill:#4f8d43"
         inkscape:original="M 114.46875 809.65625 C 108.61399 812.37146 103.31299 816.11332 97.90625 819.5625 C 96.913375 820.37045 95.505691 820.95079 95 822.15625 C 96.399857 823.70054 98.873497 822.23226 100.65625 822.34375 C 110.39337 821.08238 120.1096 819.56306 129.4375 816.6875 C 130.70479 816.49398 131.69423 814.67018 130.15625 814.125 C 126.16339 813.33239 121.8983 813.79185 117.8125 813.375 C 116.82809 813.21451 114.33099 813.64684 114.9375 811.96875 C 115.34313 811.23767 116.08413 809.52634 114.46875 809.65625 z M 191.3125 838.9375 C 189.44912 839.90133 189.27204 842.60082 187 843.0625 C 185.46988 843.96198 186.90173 845.63862 188.0625 846.125 C 191.7565 848.23425 194.74313 851.49951 198.875 852.96875 C 200.52068 852.61946 201.22371 850.67683 203.03125 850.59375 C 205.65996 849.83063 208.05276 851.18163 210.5625 851.53125 C 212.15646 850.90545 210.49038 849.15957 210.0625 848.21875 C 209.43362 846.83785 208.20312 845.89075 206.6875 845.5 C 206.08784 843.7801 206.59429 841.73975 205.5625 840.125 C 203.74512 839.73678 202.63547 841.92948 200.875 842.0625 C 197.33319 843.57514 194.56368 840.19724 191.65625 838.9375 C 191.54613 838.9479 191.41852 838.8967 191.3125 838.9375 z M 64.78125 842.15625 C 64.50314 842.07048 64.197406 842.08831 64 842.28125 C 57.89191 849.44112 53.508127 857.76669 49.09375 865.90625 C 44.422899 874.58522 40.811159 883.76744 36.90625 892.75 C 35.554678 894.60262 32.662135 893.07125 31.0625 894.40625 C 31.249709 897.07602 34.722257 898.91159 33.9375 901.8125 C 32.904427 907.32088 32.449774 913.1247 30.5 918.40625 C 29.90203 920.22439 27.479615 921.67921 28.0625 923.71875 C 28.556687 924.972 30.999248 923.71431 30.625 925.40625 C 31.987146 942.9372 31.928699 960.80846 37.28125 977.8125 C 40.788421 990.03485 47.893 1001.0951 57.1875 1010.25 C 67.626284 1020.7431 79.685159 1029.6222 90.46875 1039.8125 C 94.657631 1043.9816 99.501414 1047.7462 105.5625 1049.2188 C 113.29818 1051.5588 121.63828 1052.3297 129.65625 1050.8125 C 134.83151 1050.1461 139.42271 1047.6535 143.28125 1044.4375 C 145.23606 1042.7927 148.15682 1043.8611 150.53125 1043.6875 C 159.71503 1043.7555 169.49403 1042.0389 176.65625 1036.4062 C 177.76584 1035.6494 176.77494 1034.3119 175.59375 1034.5 C 171.55424 1034.469 168.10008 1037.099 164 1036.8438 C 155.83953 1037.2082 147.47405 1035.6327 140.6875 1031.25 C 136.18647 1028.6247 131.51038 1026.1984 127.71875 1022.6875 C 122.11068 1017.6189 113.41778 1015.9587 109.25 1009.5 C 103.0688 1001.3983 95.320241 994.54389 88.21875 987.1875 C 85.662391 981.13543 83.245313 974.85387 82.5625 968.28125 C 81.634058 961.95866 79.976369 955.7155 79.09375 949.40625 C 78.908038 942.25947 79.138757 935.04219 78.5 927.9375 C 76.330089 927.61233 76.012912 930.19957 75.4375 931.5625 C 73.707947 937.28423 73.137859 943.24867 72.71875 949.15625 C 72.58407 956.87411 71.96707 964.61636 72.65625 972.3125 C 73.487788 976.02074 73.34205 979.85155 74.4375 983.53125 C 74.864426 987.4067 74.885534 991.37833 76.25 995.125 C 76.926858 997.69524 78.550167 1000.9843 78.84375 1003.0938 C 72.448669 999.04742 66.016624 994.72803 62.0625 988.4375 C 59.588293 984.53997 57.607403 980.40249 55.09375 976.53125 C 53.079712 971.75411 52.377872 966.48819 50.84375 961.59375 C 49.400081 953.80441 48.862041 945.87918 48.46875 938 C 47.459722 933.65689 46.26653 929.31859 45.96875 924.84375 C 45.117894 918.23823 46.899465 911.65047 47.25 905.0625 C 47.603659 898.50381 48.727042 892.01938 50.40625 885.65625 C 52.428193 877.402 54.483766 869.05727 58.78125 861.5625 C 60.42011 857.6636 60.488083 853.30482 62.75 849.59375 C 63.547023 847.31023 65.48608 845.13357 65.40625 842.6875 C 65.333101 842.42889 65.05936 842.24202 64.78125 842.15625 z M 95.65625 865.5 C 94.010885 865.72104 94.948802 867.59693 95.71875 868.25 C 96.768288 869.18266 96.99699 870.39622 97.375 871.59375 C 98.780574 872.95145 100.3696 870.77257 101.40625 870 C 102.25841 868.91246 104.1676 867.79098 103.75 866.3125 C 101.8159 865.5204 99.288084 866.08008 97.15625 865.65625 C 96.645382 865.63055 96.168788 865.45559 95.65625 865.5 z M 85.28125 886.15625 C 81.690002 886.68001 79.875835 890.18879 77.125 892 C 75.682875 893.44356 73.480532 894.38129 72.625 896.21875 C 73.21196 897.7458 75.224064 896.27835 76.3125 896.03125 C 77.312421 895.7517 78.853934 894.71912 79.6875 894.875 C 79.76416 898.34888 79.152275 901.83263 78.96875 905.25 C 79.787969 906.72951 81.540786 905.06666 82 904.125 C 84.546442 898.80012 86.19861 893.02933 87.0625 887.28125 C 87.164009 886.3078 86.14708 886.02223 85.28125 886.15625 z M 193.84375 906.09375 C 192.11105 907.0616 191.47793 909.21547 189.90625 910.4375 C 186.97226 913.54301 184.43068 917.00355 181.09375 919.6875 C 177.58734 923.22152 174.51099 927.3448 169.78125 929.5625 C 164.53601 932.59167 158.32319 934.69651 154.34375 939.1875 C 153.83984 940.81099 156.24455 940.33186 157.1875 940.03125 C 169.01675 937.14598 181.63231 937.19134 193.0625 933 C 195.91488 931.67766 199.25119 930.64443 201.4375 928.46875 C 202.20354 927.31521 200.6255 926.6704 199.5625 927.0625 C 194.55409 927.36394 189.55051 929.16393 184.53125 928.5 C 183.62717 928.4397 182.68858 927.87299 183.28125 926.96875 C 185.60324 921.58814 188.69771 916.49563 192 911.59375 C 193.01919 910.03496 195.1411 908.33135 194.625 906.34375 C 194.38516 906.17165 194.1577 906.02343 193.84375 906.09375 z M 133.375 963.8125 C 131.74604 964.84674 132.30946 967.18689 132.0625 968.78125 C 132.23322 972.25228 134.43908 975.2751 136.03125 978.3125 C 139.31498 982.71929 143.92207 986.35929 149.5 988 C 151.48408 988.48183 153.52097 989.79686 155.59375 989.46875 C 156.62535 988.22939 154.42294 987.18155 153.6875 986.375 C 149.2048 982.42116 142.9253 980.26887 139.4375 975.40625 C 137.36479 971.86324 135.85929 968.02055 134.46875 964.25 C 134.24007 963.91806 133.80363 963.6807 133.375 963.8125 z "
         inkscape:radius="1.917603"
         sodipodi:type="inkscape:offset" />
      <path
         d="m 187.375,810.8125 c -0.78799,0.0844 -1.88549,0.35854 -2.75,1.3125 -0.86451,0.95396 -1.0545,2.2781 -0.96875,3.15625 0.17151,1.75631 0.87105,2.9101 1.84375,4.625 0.67553,1.19101 1.85727,3.93257 2.34375,5.4375 0.89849,2.7795 1.50841,4.63234 1.96875,5.90625 0.46034,1.27391 0.44456,1.75448 1.4375,2.90625 0.36507,0.42347 0.92984,0.95352 1.875,1.21875 0.94516,0.26523 2.08149,0.0218 2.75,-0.375 1.33702,-0.79358 1.62996,-1.57168 2.09375,-2.4375 1.7161,-3.20363 1.13162,-6.77304 0.0312,-10.28125 -1.10037,-3.50821 -2.95889,-6.97426 -5.71875,-9.375 -0.71779,-0.62439 -1.30016,-1.11457 -2.09375,-1.53125 -0.79359,-0.41668 -1.91916,-0.65826 -2.8125,-0.5625 z m -31.28125,6.84375 c -0.56602,-0.0423 -1.11042,-0.078 -1.90625,0.21875 -0.39792,0.14836 -0.89499,0.38894 -1.375,0.9375 -0.48001,0.54856 -0.84864,1.49853 -0.78125,2.34375 0.13478,1.69045 1.10674,2.30771 1.6875,2.65625 0.58076,0.34854 1.10462,0.48883 1.65625,0.59375 -0.5355,-0.10185 -0.0693,-0.0246 0.40625,0.28125 0.47558,0.30587 1.12393,0.78536 1.8125,1.375 1.57799,1.35124 4.08185,3.18857 5.96875,4.375 1.6268,1.02286 4.85153,3.14718 7.09375,4.65625 2.29891,1.54724 5.35403,3.55245 6.96875,4.53125 1.67669,1.01636 2.65878,1.77247 4.5625,1.9375 0.95186,0.0825 2.47938,-0.35599 3.28125,-1.3125 0.80187,-0.95651 0.89791,-1.84179 0.96875,-2.53125 0.084,-0.81773 -0.0635,-1.86497 -0.40625,-2.6875 -0.34275,-0.82253 -0.76672,-1.45056 -1.3125,-2.1875 -2.44619,-3.30306 -7.61963,-7.63279 -11.6875,-10.125 -5.47821,-3.35626 -9.22187,-4.48591 -16.9375,-5.0625 z m 55,17.15625 c -2.02659,-0.36115 -4.58609,0.37626 -5.90625,2.25 -0.30942,0.43972 -0.93393,1.28828 -0.9375,2.59375 -0.004,1.30547 0.42462,1.89517 0.71875,2.46875 0.43107,0.84066 0.84049,1.31587 1.40625,2.03125 0.56576,0.71538 1.22325,1.50164 1.90625,2.28125 0.683,0.77961 1.38921,1.53045 2,2.15625 0.61079,0.6258 0.70269,0.95342 1.90625,1.625 0.9175,0.51183 1.32764,0.49962 1.84375,0.5625 0.51611,0.0629 1.01765,0.0671 1.5625,0.0312 0.67287,-0.0443 1.69625,-0.12163 2.6875,-0.875 0.99125,-0.75337 1.30882,-1.62746 1.5625,-2.25 0.26068,-0.6398 0.56041,-1.54486 0.53125,-2.5 -0.0292,-0.95514 -0.26273,-1.67229 -0.53125,-2.53125 -0.55254,-1.76757 -1.62101,-3.3557 -3.1875,-4.8125 -1.69278,-1.57424 -3.51449,-2.66628 -5.5625,-3.03125 z M 180.375,849.125 c -0.9177,0.17063 -1.7849,0.55617 -2.5625,1.125 -1.27239,0.93077 -2.34803,3.03385 -2.09375,4.78125 0.25428,1.7474 1.07592,2.97405 2.15625,4.4375 1.55316,2.10395 2.5149,4.39548 3.03125,7.4375 -0.0101,-0.0597 0.12521,1.79257 0.15625,3.84375 0.031,2.05118 0.0279,4.60942 0,7.15625 -0.0279,2.54683 -0.0808,5.06494 -0.15625,7.0625 -0.0377,0.99878 -0.08,1.88575 -0.125,2.53125 -0.045,0.6455 -0.14388,1.18686 -0.0937,0.96875 -0.13041,0.56737 -0.32346,1.1532 0.0312,2.28125 0.17735,0.56403 0.60353,1.31237 1.34375,1.78125 0.74022,0.46888 1.5747,0.55968 2.125,0.5 1.10059,-0.11936 1.54649,-0.48659 1.96875,-0.78125 0.42226,-0.29466 0.7701,-0.62024 1.125,-0.96875 1.41961,-1.39403 2.91304,-3.41474 4.1875,-5.78125 2.09195,-3.88449 2.73897,-7.8798 2.46875,-14.125 -0.37123,-8.57962 -2.17967,-14.67017 -6.21875,-18.9375 -2.03834,-2.15352 -4.47118,-3.8466 -7.34375,-3.3125 z M 208.40625,859 c -0.85756,0.035 -2.53715,0.85388 -3.03125,2.09375 -0.4941,1.23987 -0.21657,1.96939 -0.0625,2.53125 0.30814,1.12371 0.77146,1.99009 1.46875,3.28125 2.33818,4.32954 2.21166,3.94876 2.71875,9.4375 0.13381,1.44842 0.29563,2.81994 0.46875,3.90625 0.0866,0.54315 0.18157,1.01039 0.28125,1.4375 0.0498,0.21356 0.10523,0.41191 0.1875,0.65625 0.0823,0.24434 -0.0166,0.42975 0.6875,1.21875 0.45818,0.51337 1.40359,1.50223 3.0625,1.4375 1.65891,-0.0647 2.38165,-0.9822 2.84375,-1.5 1.18026,-1.32259 1.04298,-2.18719 1.125,-3.1875 0.082,-1.00031 0.0988,-2.22554 0.0937,-4 -0.0118,-4.23571 -0.24832,-5.81221 -1.125,-8.25 -0.68111,-1.89399 -1.58367,-3.6495 -2.59375,-5.125 -1.01008,-1.4755 -1.88329,-2.74479 -3.84375,-3.5 -0.66597,-0.25654 -1.30708,-0.47723 -2.28125,-0.4375 z M 123.0625,965.9375 c -1.2415,0.20999 -1.83907,0.9454 -2.09375,1.28125 -0.25468,0.33585 -0.34393,0.52491 -0.4375,0.6875 -0.88106,1.531 -0.8306,2.32477 -0.4375,3.78125 0.1457,0.53988 0.32458,1.14568 0.9375,1.8125 0.61292,0.66682 2.03056,1.28097 3.1875,1.03125 1.15694,-0.24972 1.74439,-0.91321 2.125,-1.40625 0.38061,-0.49304 0.5967,-0.95188 0.78125,-1.4375 0.20605,-0.54222 0.47272,-1.28701 0.3125,-2.3125 -0.16022,-1.02549 -0.806,-1.90178 -1.28125,-2.34375 -0.14361,-0.13355 -0.29579,-0.28116 -0.65625,-0.53125 -0.36046,-0.25009 -1.17826,-0.77549 -2.4375,-0.5625 z m 30.84375,8.46875 c -0.70562,-0.002 -1.31803,0.0506 -2.0625,0.25 -0.74447,0.19936 -1.92814,0.64687 -2.5625,2.0625 -0.63436,1.41563 -0.0964,2.77785 0.34375,3.46875 0.44017,0.6909 0.90581,1.14308 1.4375,1.59375 0.82295,0.69757 1.48765,1.04759 2.71875,1.8125 1.2311,0.76491 2.77302,1.6778 4.375,2.625 3.20395,1.89441 6.50441,3.82691 8.25,4.6875 0.98516,0.48569 1.95988,0.80839 3.1875,0.75 1.22762,-0.0584 2.88741,-0.92334 3.5,-2.25 0.61259,-1.32666 0.40019,-2.51564 0.0937,-3.5 -0.30644,-0.98436 -0.80326,-1.89352 -1.46875,-2.8125 -1.88575,-2.60408 -4.7494,-4.59855 -7.90625,-6.125 -3.15685,-1.52645 -6.59745,-2.55295 -9.90625,-2.5625 z m -24.4375,4.84375 c -1.02021,0.13995 -2.11008,0.63459 -2.90625,1.375 -1.49556,1.39083 -1.85282,3.4645 -1.5,5.125 0.35282,1.6605 1.32594,3.15224 2.78125,4.21875 1.30691,0.95774 2.41575,1.01058 3.53125,0.96875 1.1155,-0.0418 2.34091,-0.0784 3.625,-1.46875 0.5982,-0.64775 1.22736,-1.54617 1.46875,-2.65625 0.24139,-1.11008 0.0674,-2.1414 -0.1875,-3 -0.9131,-3.07539 -3.72663,-4.98582 -6.8125,-4.5625 z m 13.40625,12.21875 c -0.55116,0.0244 -1.11219,0.12929 -1.71875,0.34375 -0.73662,0.26046 -1.5996,0.71022 -2.21875,1.625 -0.61915,0.91478 -0.75146,2.18426 -0.5625,3.0625 0.37793,1.75648 1.30015,2.59905 2.34375,3.5625 2.0872,1.9269 5.27722,3.8844 9.46875,5.9375 8.04937,3.9427 8.71632,4.3563 12.21875,8 1.78583,1.8578 3.69969,3.7842 4.78125,4.7188 1.0542,0.9109 2.12843,1.721 3.78125,1.875 1.65282,0.1539 3.44595,-0.9213 4.25,-2.0626 1.08131,-1.5347 1.3075,-3.8313 0.71875,-5.6562 -0.58875,-1.8249 -1.67067,-3.4991 -3.25,-5.5625 -3.36738,-4.3996 -8.15578,-7.78723 -15.21875,-11.15625 -5.37908,-2.5658 -9.60833,-4.19013 -12.9375,-4.59375 -0.55798,-0.0676 -1.10509,-0.11815 -1.65625,-0.0937 z"
         id="path6771"
         style="fill:#b9f1d4"
         inkscape:original="M 187.6875 813.8125 C 186.18173 813.97387 186.31384 815.21311 188.125 818.40625 C 188.98601 819.92426 190.14297 822.62506 190.71875 824.40625 C 192.50878 829.94377 193.16564 831.76341 193.53125 832.1875 C 194.06415 832.80564 194.57037 832.51042 195.3125 831.125 C 197.25758 827.49391 194.55675 818.87948 190.3125 815.1875 C 189.0144 814.05832 188.40584 813.7355 187.6875 813.8125 z M 155.875 820.65625 C 154.72157 820.57006 154.77286 821.21599 155.9375 821.4375 C 156.61401 821.56617 158.0095 822.45139 159.5625 823.78125 C 160.94257 824.96301 163.45806 826.80723 165.15625 827.875 C 166.85445 828.94275 170.07949 831.06984 172.34375 832.59375 C 174.608 834.11766 177.68826 836.12245 179.1875 837.03125 C 182.34697 838.94642 183.2717 839.02 183.4375 837.40625 C 183.52246 836.57929 183.25109 835.93454 182.28125 834.625 C 180.43172 832.12761 175.06686 827.48566 171.46875 825.28125 C 166.19556 822.05059 163.426 821.22054 155.875 820.65625 z M 210.5625 837.78125 C 209.33534 837.56256 208.30608 837.89018 207.65625 838.8125 C 207.12222 839.57142 207.11657 839.69757 207.65625 840.75 C 208.28876 841.98351 212.76263 847.09511 213.65625 847.59375 C 213.96296 847.76485 214.75254 847.8555 215.40625 847.8125 C 216.42828 847.74522 216.65406 847.56484 217.0625 846.5625 C 217.47745 845.54408 217.46785 845.15909 216.96875 843.5625 C 216.52573 842.14527 215.99947 841.36978 214.59375 840.0625 C 213.21285 838.7783 211.78966 837.99994 210.5625 837.78125 z M 180.9375 852.09375 C 180.48331 852.1782 180.02226 852.37404 179.59375 852.6875 C 178.1817 853.72043 178.38856 855.08126 180.3125 857.6875 C 182.15437 860.18255 183.29503 862.98945 183.875 866.40625 C 184.28418 868.81692 184.08428 887.15814 183.625 889.15625 C 183.03877 891.70668 186.55602 888.2525 188.8125 884.0625 C 190.65916 880.63348 191.19801 877.52077 190.9375 871.5 C 190.58159 863.27454 188.90403 858.06337 185.53125 854.5 C 183.77326 852.64268 182.30006 851.84041 180.9375 852.09375 z M 208.53125 862 C 207.79488 862.03002 208.10737 863.00576 209.4375 865.46875 C 211.80643 869.85523 211.98893 870.53063 212.5 876.0625 C 212.75658 878.83978 213.15221 881.31284 213.375 881.5625 C 213.89966 882.15036 214.20466 882.14609 214.78125 881.5 C 215.13435 881.10432 215.22875 879.80489 215.21875 876.3125 C 215.20712 872.11969 215.11576 871.41428 214.28125 869.09375 C 213.09599 865.79783 211.05512 862.81295 209.59375 862.25 C 209.1144 862.06535 208.77671 861.98999 208.53125 862 z M 123.5625 968.90625 C 123.43604 968.92764 123.3327 969.09965 123.15625 969.40625 C 122.94457 969.77408 122.87857 970.45634 123 970.90625 C 123.2704 971.90821 123.87524 971.77561 124.3125 970.625 C 124.56221 969.9679 124.5152 969.64194 124.09375 969.25 C 123.84195 969.01584 123.68896 968.88486 123.5625 968.90625 z M 153.90625 977.4375 C 151.70436 977.43115 151.3964 978.1095 153 979.46875 C 154.12271 980.4204 164.76962 986.71815 167.75 988.1875 C 170.53855 989.56226 171.36961 987.75883 169.28125 984.875 C 166.43567 980.94547 159.20594 977.4528 153.90625 977.4375 z M 129.875 982.25 C 129.40904 982.31392 128.99113 982.50326 128.625 982.84375 C 127.40862 983.97495 127.89008 986.25983 129.625 987.53125 C 130.41205 988.10802 132.18853 988.04804 132.78125 987.40625 C 133.58815 986.53251 133.736 985.87216 133.375 984.65625 C 132.89565 983.04176 131.27287 982.05824 129.875 982.25 z M 144.15625 994.5625 C 143.3006 994.45876 142.62605 994.49014 142.15625 994.65625 C 139.41931 995.62398 143.43112 999.32887 151.5 1003.2812 C 159.59039 1007.244 160.99042 1008.1575 164.59375 1011.9062 C 166.34871 1013.7319 168.39475 1015.7795 169.15625 1016.4375 C 170.80465 1017.8619 171.92162 1017.957 172.75 1016.7812 C 173.91802 1015.1234 173.25527 1013.0418 170.28125 1009.1562 C 167.29258 1005.2514 162.98878 1002.1341 156.15625 998.875 C 150.91787 996.37631 146.72321 994.87371 144.15625 994.5625 z "
         inkscape:radius="3.0177321"
         sodipodi:type="inkscape:offset" />
      <path
         d="m 148.53125,795.0625 c -5.02302,-0.11961 -10.04135,1.08811 -15.9375,3.53125 -10.01767,4.15093 -18.32569,8.62191 -31.6875,16.96875 -2.771031,1.73101 -5.378533,3.29658 -7.46875,4.5 -2.090217,1.20342 -3.72167,2.04579 -4.3125,2.28125 -10.077661,4.01613 -17.864139,9.15665 -24.15625,16 -8.454159,9.19481 -15.123506,20.60372 -24.53125,41.78125 -1.655707,3.72711 -2.975341,6.59843 -3.9375,8.5625 -0.481079,0.98203 -0.862679,1.73029 -1.15625,2.25 -0.293571,0.51971 -0.663134,0.87313 -0.40625,0.65625 C 34.560805,891.91179 34.340638,892 33.5,892 c -1.038304,0 -1.988837,0.2065 -2.78125,0.65625 -0.792413,0.44975 -1.508637,1.29195 -1.5,2.34375 0.004,0.48513 0.116163,0.67284 0.21875,0.9375 0.102587,0.26466 0.251391,0.53678 0.40625,0.84375 0.309717,0.61394 0.700749,1.33296 1.15625,2.03125 0.472186,0.72387 0.784694,1.1582 0.9375,1.46875 0.152806,0.31055 0.219597,0.4929 0.21875,1.03125 -0.0017,1.07669 -0.442769,3.3885 -1.375,8.375 -0.690871,3.69548 -1.106334,5.72846 -1.53125,7 -0.424916,1.27154 -0.826708,1.82634 -1.71875,2.9375 -0.403184,0.50222 -0.774786,1.03699 -1.09375,1.5 -0.318964,0.46301 -0.558117,0.68976 -0.75,1.28125 -0.288439,0.88907 0.0082,1.9275 0.59375,2.5625 0.58551,0.635 1.377539,0.98548 2.28125,1.15625 l 0.21875,0.0312 0.15625,1.75 c 0.12652,1.41255 0.481986,6.72317 0.78125,11.71875 0.84241,14.06236 1.581932,20.73156 3.15625,28.40625 2.23078,10.87486 6.371882,21.93194 11,29.21875 5.380193,8.4709 13.791953,17.0656 29.375,30.125 3.654479,3.0627 9.897181,8.5252 13.84375,12.0938 1.987455,1.797 3.936924,3.5124 5.46875,4.8437 1.531826,1.3313 2.497086,2.1577 3.09375,2.5625 4.79019,3.2499 12.40608,5.6433 20.46875,6.5625 3.89628,0.4443 10.46733,0.1838 14.15625,-0.5937 4.63641,-0.9773 6.91891,-1.9534 11.59375,-4.875 l 3.96875,-2.4688 6.0625,0.062 c 5.05972,0.05 7.13473,-0.066 9.40625,-0.5313 5.66715,-1.1607 9.1811,-2.458 13.8125,-5.0624 a 1.3027658,1.3027658 0 0 0 0.1875,-0.094 c 5.14824,-4.055 7.75728,-7.1311 9.15625,-9.5938 1.39897,-2.4626 1.53059,-4.3492 1.78125,-5.375 a 1.3027658,1.3027658 0 0 0 0.0312,-0.1562 c 0.17806,-1.5958 0.33509,-3.8114 0.375,-5.9375 0.0392,-2.0902 0.004,-4.0317 -0.3125,-5.4375 -0.005,-0.024 0.006,-0.07 0,-0.094 l -0.0312,0 c -0.66665,-3.6114 -1.38948,-5.8881 -2.5625,-8.625 -1.22808,-2.8651 -1.10905,-2.4519 -1.15625,-7.3437 -0.0753,-7.81944 -1.60792,-12.92562 -5.28125,-17.46875 -3.28736,-4.06579 -7.04876,-6.64692 -14.28125,-9.875 -4.68366,-2.09047 -4.57913,-2.00556 -6.96875,-4.46875 -2.12047,-2.18576 -3.30297,-3.0489 -5.71875,-4.15625 -3.54347,-1.62432 -7.59095,-2.44058 -11.53125,-2.3125 -0.42571,0.0138 -0.76389,0.003 -1.125,0 0.12353,-0.31744 0.20093,-0.56847 0.375,-0.96875 0.62041,-1.42669 1.53644,-3.27306 2.46875,-4.96875 1.65963,-3.01859 5.33014,-6.46913 8.40625,-7.9375 5.75611,-2.74762 13.991,-4.72209 26,-6.0625 2.64458,-0.29517 6.78457,-1.08457 10.75,-2 3.96543,-0.91543 7.62545,-1.91024 9.46875,-2.6875 6.30495,-2.65857 12.70471,-7.57866 19.25,-14.75 0.92186,-1.01005 1.81327,-1.93694 2.5,-2.625 0.34337,-0.34403 0.63806,-0.62686 0.84375,-0.8125 0.0714,-0.0644 0.11203,-0.0882 0.15625,-0.125 0.0683,7.2e-4 0.60304,-0.0937 0.96875,-0.0937 0.45857,0 0.9326,-0.0691 1.40625,-0.3125 0.47365,-0.24338 0.89558,-0.66631 1.125,-1.125 0.45885,-0.91738 0.49738,-1.91933 0.5,-3.3125 0.003,-1.68581 0.23788,-2.66467 2.09375,-7.6875 1.2246,-3.31429 2.39267,-6.72094 2.6875,-8.15625 0.22916,-1.11562 0.41866,-1.66059 0.46875,-1.75 0.0203,-0.003 0.0679,0 0.25,0 0.57033,0 1.12516,-0.0516 1.6875,-0.34375 0.56234,-0.29218 1.02165,-0.89841 1.1875,-1.5 0.33171,-1.20317 0.0354,-2.37408 -0.4375,-4.125 -0.42738,-1.58226 -0.45475,-2.05735 -0.1875,-4 0.29648,-2.15523 0.20037,-4.23257 -0.46875,-10.46875 -0.44944,-4.18873 -0.94116,-10.09184 -1.125,-13.03125 -0.40834,-6.52828 -1.04972,-10.28368 -2.5,-14.65625 -2.32534,-7.01089 -5.22697,-10.557 -11.75,-14.34375 -1.13652,-0.65977 -2.14217,-1.30015 -2.875,-1.8125 -0.36642,-0.25617 -0.67913,-0.48975 -0.875,-0.65625 -0.19587,-0.1665 -0.30179,-0.33125 -0.1875,-0.125 0.0118,0.0213 -0.26122,-0.67142 -0.53125,-1.4375 -0.27003,-0.76608 -0.58643,-1.70947 -0.875,-2.65625 -3.29684,-10.81692 -9.23931,-16.75425 -20.46875,-20.4375 -3.94133,-1.29275 -8.49241,-2.16244 -15.96875,-3.09375 -4.99565,-0.62229 -6.05945,-0.87943 -7.65625,-1.625 -5.8298,-2.722 -10.82304,-4.16169 -15.84375,-4.28125 z m -0.90625,4.8125 c 4.13824,0.0754 8.79994,1.05951 12.6875,2.75 2.23895,0.9736 3.13375,1.60228 5.5625,3.8125 0.81404,0.7408 1.48965,1.3401 2.03125,1.78125 0.5416,0.44115 0.86094,0.70966 1.34375,0.9375 0.1207,0.057 0.25629,0.12728 0.5625,0.15625 0.15311,0.0145 0.34408,0.0216 0.625,-0.0937 0.28092,-0.11535 0.58995,-0.43146 0.71875,-0.71875 0.25761,-0.57458 0.12162,-0.85622 0.0625,-1.03125 -0.0591,-0.17503 -0.12661,-0.26982 -0.1875,-0.375 -0.23766,-0.4105 -0.5597,-0.81706 -1.0625,-1.40625 0.2536,0.014 0.37467,0.009 0.6875,0.0312 10.43164,0.75436 20.88134,3.86885 25.53125,7.34375 3.40738,2.54635 7.29869,9.42903 8.40625,15.34375 0.39123,2.08927 0.32582,6.41241 -0.0625,10.25 -0.19416,1.9188 -0.4448,3.7319 -0.75,5.125 -0.1526,0.69655 -0.31744,1.29784 -0.46875,1.71875 -0.15131,0.42091 -0.35483,0.66936 -0.28125,0.59375 0.14711,-0.15118 -0.60183,0.31005 -1.46875,0.53125 -0.86692,0.2212 -1.92785,0.375 -2.75,0.375 -0.47427,0 -0.70345,-0.0308 -0.84375,-0.0937 -0.1403,-0.063 -0.29622,-0.1704 -0.5625,-0.5625 -0.53256,-0.7842 -1.3092,-2.65288 -2.53125,-6.0625 -2.59747,-7.24713 -3.82965,-9.32766 -7.96875,-13.25 -1.74348,-1.65218 -4.14604,-3.74284 -6.28125,-5.5 -1.0676,-0.87858 -2.08332,-1.6581 -2.90625,-2.28125 -0.82293,-0.62315 -1.35904,-1.06557 -1.9375,-1.34375 -0.22608,-0.10872 -0.39402,-0.17191 -0.59375,-0.25 -0.19973,-0.0781 -0.42796,-0.19759 -0.90625,-0.15625 -0.23914,0.0207 -0.56803,0.10415 -0.8125,0.3125 -0.24447,0.20835 -0.34367,0.47432 -0.40625,0.65625 -0.12515,0.36386 -0.12308,0.55289 -0.125,0.71875 -0.006,0.5886 0.15485,0.68514 0.25,0.84375 0.0951,0.15861 0.20173,0.29897 0.3125,0.4375 0.22154,0.27707 0.50871,0.56219 0.84375,0.90625 0.67009,0.68811 1.56896,1.54844 2.5625,2.40625 3.15351,2.7227 5.55882,4.88046 7.28125,6.5625 1.72243,1.68204 2.76892,2.93629 3.09375,3.5 0.41415,0.71873 1.68933,3.78054 2.71875,6.53125 0.43734,1.1686 0.8095,2.21871 1.125,3.15625 -0.64177,-0.33094 -1.10429,-0.53837 -2.15625,-1.125 -2.5226,-1.40674 -5.8621,-3.38581 -7.3125,-4.3125 -3.21856,-2.05642 -4.91529,-2.60506 -11.3125,-3.5625 -6.96921,-1.04304 -14.30401,-1.01903 -19.03125,0.15625 -5.80982,1.44443 -9.05069,2.84167 -17.59375,7.625 -14.16389,7.93046 -14.79345,8.40758 -23.59375,17.28125 -2.77016,2.79325 -3.96954,3.75834 -5.1875,4.3125 -0.91758,0.41749 -1.22211,0.55455 -1.875,0.625 -0.65289,0.0705 -1.74599,0.0268 -3.90625,-0.0625 -1.788351,-0.074 -2.917184,-0.0979 -3.6875,-0.0625 -0.385158,0.0177 -0.678633,0.0226 -1.0625,0.15625 -0.191933,0.0668 -0.418604,0.1839 -0.65625,0.4375 -0.237646,0.2536 -0.40625,0.67803 -0.40625,1 0,0.61237 0.434911,1.08658 0.71875,1.28125 0.283839,0.19467 0.526163,0.2702 0.78125,0.34375 0.510174,0.14709 1.081702,0.20873 1.84375,0.28125 1.524398,0.14508 2.305915,0.27099 2.96875,0.375 -0.06614,0.095 -0.07991,0.14481 -0.15625,0.25 -0.606421,0.83553 -1.549873,1.98912 -2.71875,3.34375 -1.096282,1.2705 -3.174645,3.83155 -4.6875,5.78125 -3.766668,4.85432 -4.491803,5.56173 -8.84375,8.28125 -2.675015,1.6716 -5.571589,3.78166 -7.75,5.59375 -1.089205,0.90604 -1.980812,1.71837 -2.625,2.40625 -0.322094,0.34394 -0.569331,0.64431 -0.78125,1 -0.10596,0.17784 -0.221965,0.36032 -0.28125,0.6875 -0.05929,0.32718 0.02255,0.98913 0.4375,1.375 6.51e-4,6.1e-4 0.228798,0.16887 0.34375,0.21875 0.114952,0.0499 0.229559,0.0792 0.3125,0.0937 0.165881,0.029 0.262791,0.0386 0.34375,0.0312 0.161919,-0.0148 0.250242,-0.0432 0.3125,-0.0625 0.124517,-0.0386 0.181274,-0.0934 0.25,-0.125 0.137451,-0.0633 0.276142,-0.12978 0.4375,-0.21875 0.322716,-0.17794 0.736549,-0.40743 1.25,-0.71875 1.026901,-0.62265 2.413081,-1.49669 3.90625,-2.46875 1.321013,-0.85999 2.489109,-1.61481 3.46875,-2.21875 -0.245569,0.99312 -0.439872,1.80605 -1.09375,4.21875 -0.917191,3.38432 -2.857981,9.28879 -4.25,12.96875 -1.429891,3.78009 -2.979775,8.40544 -3.5,10.5625 -1.219567,5.05688 -2.280457,11.36316 -2.28125,14.21875 -4.35e-4,1.38767 0.08089,2.78529 0.21875,3.875 0.06893,0.54485 0.172434,1.00329 0.28125,1.40625 0.05441,0.20148 0.09555,0.39192 0.21875,0.625 0.0616,0.11654 0.13891,0.23847 0.3125,0.40625 0.17359,0.16778 0.515476,0.40625 0.96875,0.40625 0.532737,0 0.899531,-0.27443 1.09375,-0.46875 0.194219,-0.19432 0.281691,-0.35791 0.375,-0.53125 0.186617,-0.34668 0.314672,-0.73104 0.4375,-1.15625 0.245655,-0.85042 0.432082,-1.94168 0.5625,-3.15625 0.101576,-0.94598 0.863915,-5.52361 1.625,-9.8125 1.331283,-7.50206 1.436596,-7.91286 4.375,-15.875 3.369395,-9.12997 4.408068,-12.23828 5.53125,-17.0625 0.884401,-3.79867 1.468514,-4.92964 4,-7.53125 1.214436,-1.24808 4.125109,-4.66 6.65625,-7.75 2.84284,-3.47051 4.37235,-5.32488 5.46875,-6.5 1.0964,-1.17512 1.75957,-1.68231 3.03125,-2.625 1.36524,-1.01203 5.27378,-4.456 9.0625,-7.9375 1.87394,-1.722 3.80857,-3.42492 5.40625,-4.78125 1.59768,-1.35633 2.96341,-2.44031 3.3125,-2.65625 1.01023,-0.62493 5.95345,-3.4 10.78125,-6.0625 9.4132,-5.19121 12.46874,-6.46958 17.96875,-7.4375 4.80726,-0.84602 17.7192,-0.0338 23.28125,1.53125 0.19705,0.0554 0.95272,0.40405 1.78125,0.84375 0.82853,0.4397 1.77586,0.98202 2.625,1.53125 1.80579,1.16799 4.74392,2.91462 6.5625,3.9375 3.04553,1.71301 5.81148,3.77838 9.03125,6.71875 1.17378,1.07192 1.42396,1.49307 2.125,3.46875 1.5578,4.39024 1.94917,7.29545 2,14.375 0.0517,7.19537 -0.19063,9.18041 -2.28125,16.71875 -3.46623,12.49852 -3.827,13.23984 -11.5,24 -5.9615,8.36007 -8.68871,11.08847 -15.75,15.78125 -2.93368,1.94966 -15.34119,8.13384 -20.6875,10.25 -4.2546,1.68402 -6.75751,3.02338 -8.75,4.8125 -2.41719,2.17052 -5.86613,7.40723 -7.4375,11.03125 -1.73928,4.01128 -3.48297,10.56694 -4.15625,15.5 -0.3949,2.89337 -0.58512,4.22253 -0.90625,4.96875 -0.32113,0.74622 -0.87231,1.26641 -2.375,2.75 -0.77263,0.76281 -1.47091,1.50535 -1.96875,2.09375 -0.24892,0.2942 -0.4274,0.52943 -0.59375,0.78125 -0.0832,0.12591 -0.17036,0.24497 -0.25,0.4375 -0.0398,0.0963 -0.10031,0.20718 -0.125,0.40625 -0.0247,0.19907 -0.0343,0.55673 0.21875,0.9375 0.28059,0.4222 0.9787,0.76861 1.46875,0.75 0.49005,-0.0186 0.82165,-0.19512 1.15625,-0.375 0.6692,-0.35977 1.39371,-0.914 2.4375,-1.78125 1.42174,-1.18129 2.61936,-2.07399 3.53125,-2.65625 0.87259,-0.55717 1.52662,-0.70436 1.375,-0.71875 0.15884,0.18774 0.51111,0.72594 1.03125,1.71875 0.75292,1.43712 1.05936,2.37661 1.09375,3.21875 0.0344,0.84214 -0.18381,1.75829 -0.8125,3.21875 -0.27386,0.63617 -0.50568,1.22072 -0.65625,1.71875 -0.0753,0.24901 -0.11847,0.4529 -0.15625,0.6875 -0.0189,0.1173 -0.0378,0.25382 -0.0312,0.4375 0.007,0.18368 -0.0709,0.52723 0.4375,1 0.43616,0.40564 1.11507,0.41619 1.46875,0.3125 0.35368,-0.10369 0.55563,-0.25464 0.75,-0.40625 0.38874,-0.30322 0.70523,-0.66859 1.03125,-1.09375 0.65204,-0.85033 1.28638,-1.91676 1.625,-3 0.0352,-0.11278 0.0574,-0.17479 0.0937,-0.28125 0.52636,0.36442 1.14821,0.79188 1.84375,1.3125 3.4622,2.59153 6.15032,3.97338 10.46875,5.34375 1.61959,0.51393 4.5463,1.61327 6.375,2.40625 1.95241,0.84662 5.26153,2.10114 7.46875,2.8125 5.10878,1.64649 6.62122,2.37393 8.71875,4.2188 3.63943,3.201 5.09997,6.0511 6.09375,12.0937 0.60501,3.6786 0.33889,10.5087 -0.34375,12.7813 -2.20138,7.3283 -9.08956,12.8555 -18.8125,14.7187 -1.52017,0.2914 -5.67795,0.4935 -9.65625,0.5 -3.9783,0.01 -8.0374,-0.2097 -9.21875,-0.4687 -3.16048,-0.6931 -5.41358,-1.7699 -20.15625,-9.5938 -7.55593,-4.01 -15.57274,-8.1664 -17.90625,-9.3125 -2.99698,-1.4721 -4.82134,-2.628 -6.90625,-4.6875 -2.084907,-2.0595 -4.42322,-5.0816 -8.125,-10.25 -8.015338,-11.19093 -8.555579,-12.20312 -11.03125,-21.53125 -0.779313,-2.93637 -1.496216,-5.33064 -2.125,-7.125 -0.628784,-1.79436 -1.039208,-2.85647 -1.65625,-3.65625 -0.154261,-0.19994 -0.285866,-0.47387 -0.84375,-0.65625 -0.278942,-0.0912 -0.717627,-0.0786 -1.0625,0.0937 -0.344873,0.17232 -0.52283,0.43361 -0.625,0.625 -0.408681,0.76557 -0.254836,1.06234 -0.21875,1.65625 0.07217,1.18782 0.351196,3.02635 0.9375,5.71875 1.80163,8.27339 4.177958,14.38017 7.84375,20.0625 4.476117,6.9383 10.952124,15.3216 14.46875,18.5937 2.792405,2.5983 3.877803,3.3076 7.71875,5.125 2.32532,1.1003 5.87489,2.9039 7.8125,3.9688 2.86354,1.5738 8.52466,4.5951 13.71875,7.3438 5.19409,2.7486 9.78405,5.1598 10.90625,5.6874 1.06954,0.5027 2.7157,1.0844 3.90625,1.4063 -0.13892,0.113 -0.22269,0.1946 -0.375,0.3125 -0.98382,0.7619 -2.22327,1.6076 -2.9375,1.9688 -0.79368,0.4012 -2.78718,1.1938 -4.21875,1.6562 -1.31416,0.4245 -1.89944,0.6014 -3.15625,0.7188 -1.25681,0.1173 -3.18245,0.1525 -6.90625,0.1874 -2.10816,0.02 -4.24405,0.01 -5.9375,-0.031 -1.69345,-0.04 -3.07404,-0.1221 -3.28125,-0.1562 -2.56048,-0.4226 -7.4747,-1.8037 -9.71875,-2.75 -2.33395,-0.9842 -3.764,-1.7118 -5.78125,-3.2188 -2.01725,-1.507 -4.612736,-3.8366 -9.0625,-7.9062 -4.829338,-4.4167 -12.328288,-11.0335 -16.6875,-14.75 -11.976214,-10.2106 -16.852173,-15.1877 -21.875,-22.18755 -3.889985,-5.42108 -7.756341,-13.76709 -10.25,-22.3125 -2.793234,-9.57203 -4.47858,-23.20712 -5.15625,-41.9375 -0.130426,-3.60491 -0.232022,-5.65421 -0.5625,-7.1875 -0.330478,-1.53329 -1.08385,-2.5946 -2,-3.375 l -0.15625,-0.15625 0.96875,-1.03125 c 0.795089,-0.8422 1.327087,-1.42421 1.6875,-2 0.180206,-0.2879 0.313367,-0.60003 0.375,-1 0.06163,-0.39997 -0.01331,-0.86633 -0.1875,-1.1875 0.262753,0.48441 0.05683,0.26808 0.0625,0 0.0057,-0.26808 0.06045,-0.69328 0.125,-1.25 0.129098,-1.11343 0.373691,-2.75719 0.75,-4.875 0.889994,-5.00875 1.366324,-7.61893 1.4375,-9.46875 0.07118,-1.84982 -0.39757,-3.02504 -1.0625,-4.25 -0.333528,-0.61446 -0.318113,-0.58092 -0.40625,-0.8125 1.699871,-0.20487 3.263754,-1.15105 4.09375,-2.6875 0.475776,-0.88071 1.586887,-3.40466 2.65625,-6 2.788304,-6.76722 9.376128,-20.55946 13.09375,-27.375 5.757133,-10.55457 10.286956,-16.68414 16.4375,-22.34375 4.3723,-4.02331 8.155547,-6.61321 13.1875,-9 4.865765,-2.30798 8.716912,-3.51597 13.96875,-4.40625 8.78908,-1.48993 28.86651,-5.70584 44.3125,-9.3125 5.31754,-1.24165 6.59636,-1.45395 10.5625,-1.59375 l 4.5,-0.15625 5.9375,1.71875 0.0312,0 c 1.69585,0.49053 3.30416,0.95116 4.5,1.28125 0.60176,0.1661 1.09265,0.30979 1.46875,0.40625 0.18805,0.0482 0.33822,0.0643 0.46875,0.0937 0.13053,0.0294 0.063,0.0937 0.5,0.0937 0.17433,0 0.35372,-0.0212 0.59375,-0.0937 0.24003,-0.0725 0.59983,-0.24383 0.84375,-0.625 0.24392,-0.38117 0.2324,-0.87054 0.15625,-1.15625 -0.0762,-0.28571 -0.17917,-0.4235 -0.28125,-0.5625 -0.40832,-0.55602 -0.85883,-0.85376 -1.46875,-1.25 -1.21983,-0.79247 -2.97452,-1.68897 -4.8125,-2.375 -5.85244,-2.18444 -11.26678,-2.74264 -16.8125,-1.6875 -0.96418,0.18345 -1.94327,0.34656 -2.75,0.46875 -0.80673,0.12219 -1.5366,0.1875 -1.5625,0.1875 -0.91398,0 -1.77808,0.24775 -2.5625,0.625 0.13684,-0.0658 -0.0463,0.0349 -0.25,0.0937 -0.20365,0.0589 -0.48823,0.12807 -0.84375,0.21875 -0.71104,0.18135 -1.67692,0.4174 -2.84375,0.6875 -2.33366,0.54021 -5.44874,1.21382 -8.71875,1.90625 -6.55328,1.38766 -14.21988,3.00821 -17.0625,3.625 -3.69604,0.80197 -6.82194,1.46748 -9.28125,1.9375 0.80654,-0.51531 1.11349,-0.76095 2.3125,-1.5 8.29644,-5.11385 13.52073,-7.93123 22.375,-12.09375 8.43487,-3.96534 11.69696,-5.15684 15.5625,-5.71875 1.2202,-0.17737 2.53208,-0.24378 3.90625,-0.21875 z m 61.3125,34.28125 c 0.35759,0.14293 0.81189,0.33278 1.5625,0.6875 4.58486,2.1667 6.8908,4.25138 8.9375,8.125 1.95076,3.69203 2.59558,6.59743 3.40625,14.90625 -0.83344,-0.73847 -1.81987,-1.64387 -2.90625,-2.6875 -4.32732,-4.15706 -4.924,-4.55861 -8.46875,-6.125 -2.24987,-0.9942 -3.17757,-1.57717 -3.34375,-1.84375 -0.0831,-0.13329 -0.14098,-0.27315 -0.125,-0.75 0.016,-0.47685 0.13332,-1.24127 0.3125,-2.25 0.31317,-1.763 0.52815,-4.90815 0.53125,-7.3125 0.002,-1.55382 0.0389,-2.30281 0.0937,-2.75 z m -6.25,17.15625 c 0.2943,0.0119 1.11467,0.17543 2.625,0.5 5.42885,1.16664 9.04273,3.20133 13,7.4375 4.55324,4.87417 5.60524,7.46209 6.5,16.125 0.26029,2.51961 0.25389,4.2856 -0.0312,6.90625 -0.33724,3.09947 -0.33249,4.33811 0.125,5.9375 l 0.28125,0.9375 -0.71875,0.59375 c -0.65419,0.54183 -1.20463,1.11045 -1.59375,1.90625 -0.38912,0.7958 -0.61135,1.70201 -1,3.25 -1.03692,4.12999 -1.88578,6.51618 -3.5625,10.21875 -0.90514,1.99877 -1.4375,3.53387 -1.4375,4.875 0,0.59557 -0.0292,0.63263 -0.0625,0.6875 -0.0333,0.0549 -0.27805,0.34867 -0.96875,0.875 -1.08056,0.82343 -2.84925,2.61453 -4.28125,4.28125 -4.7124,5.48482 -10.74464,10.58004 -15,12.78125 -5.93803,3.07162 -11.94466,4.5012 -28.25,6.59375 -0.7824,0.10041 -1.12484,0.13634 -1.78125,0.21875 4.05821,-1.99058 7.53212,-4.19871 11.8125,-7.625 5.63511,-4.51071 7.87292,-7.02445 13.6875,-15.40625 6.12404,-8.82785 6.50063,-9.58341 9.15625,-17.375 3.73629,-10.96224 5.13398,-18.2375 4.75,-25.5625 -0.30327,-5.78526 -0.73254,-7.92125 -2.5,-13.125 -0.41447,-1.22029 -0.79124,-2.42525 -1.0625,-3.34375 -0.13563,-0.45925 -0.24164,-0.84248 -0.3125,-1.125 -0.0491,-0.19559 -0.0233,-0.20492 -0.0312,-0.21875 0.0531,-0.07 0.1394,-0.15819 0.1875,-0.1875 0.33962,-0.20695 0.13784,-0.16966 0.46875,-0.15625 z m -62.78125,112.84375 c 4.38157,0 6.69735,0.42749 9.125,1.65625 0.54419,0.27545 1.59315,1.05928 2.46875,1.8125 -0.17973,-0.0299 -0.31458,-0.0598 -0.53125,-0.0937 -0.91618,-0.14337 -2.14292,-0.32105 -3.46875,-0.5 -5.45001,-0.73558 -7.57291,-1.31239 -8.90625,-2.15625 -0.30708,-0.19436 -0.48784,-0.45176 -0.75,-0.6875 0.60246,-0.0275 1.17954,-0.0312 2.0625,-0.0312 z m -4.375,3.5625 c 0.0542,0.0419 0.006,0.0151 0.0625,0.0625 1.2397,1.03334 2.56401,1.79969 4.34375,2.375 1.77974,0.57531 4.01643,0.98746 7.375,1.46875 8.54845,1.22503 13.26733,2.36523 16.25,3.78125 6.05349,2.87392 9.21727,5.50071 11.34375,9.3125 2.13066,3.81927 2.30014,4.64419 2.3125,9.53125 0.003,1.05085 -0.0311,1.80204 -0.0625,2.5 -0.20669,-0.134 -0.37701,-0.2209 -0.59375,-0.375 -2.73235,-1.94264 -5.20344,-3.10084 -10.125,-4.71875 -2.11971,-0.69685 -5.26254,-1.85162 -6.84375,-2.53125 -1.71567,-0.73743 -4.89596,-1.95127 -7.21875,-2.75 -4.91264,-1.68929 -6.3988,-2.46572 -8.75,-4.53125 -1.63651,-1.43766 -5.20778,-6.08098 -7.03125,-9.34375 -0.82943,-1.48422 -1.12412,-3.45672 -1.0625,-4.78125 z"
         id="path6767"
         style="fill:#295425"
         inkscape:original="M 148.5 796.375 C 143.70586 796.26084 138.89001 797.41075 133.09375 799.8125 C 123.14403 803.93528 114.92611 808.3278 101.59375 816.65625 C 96.029252 820.13228 91.160105 822.93828 89.59375 823.5625 C 79.655503 827.52307 72.088471 832.52891 65.9375 839.21875 C 57.615201 848.27015 51.010399 859.52902 41.625 880.65625 C 38.306246 888.127 36.348463 892.11486 35.78125 892.59375 C 35.181665 893.09997 34.521347 893.3125 33.5 893.3125 C 31.784476 893.3125 30.52325 894.0258 30.53125 895 C 30.534395 895.38486 31.235274 896.7777 32.09375 898.09375 C 33.910531 900.87892 33.92457 899.9773 32.0625 909.9375 C 30.678103 917.34267 30.399875 918.1488 28.5625 920.4375 C 27.793898 921.39489 27.054342 922.45233 26.9375 922.8125 C 26.639362 923.73147 27.420301 924.58067 28.8125 924.84375 L 30 925.0625 L 30.25 927.78125 C 30.383021 929.26639 30.731661 934.56149 31.03125 939.5625 C 31.872445 953.60458 32.595673 960.17355 34.15625 967.78125 C 36.35792 978.5142 40.474359 989.48624 44.96875 996.5625 C 50.232065 1004.8494 58.549143 1013.3478 74.09375 1026.375 C 77.773171 1029.4586 84.006299 1034.9171 87.96875 1038.5 C 91.931192 1042.0829 95.714589 1045.3645 96.375 1045.8125 C 100.86904 1048.8615 108.38443 1051.2559 116.28125 1052.1562 C 119.93368 1052.5727 126.57515 1052.2844 130 1051.5625 C 134.5628 1050.6008 136.56009 1049.767 141.1875 1046.875 L 145.5 1044.1875 L 151.90625 1044.25 C 156.94421 1044.2995 158.90211 1044.1925 161.0625 1043.75 C 166.6526 1042.605 169.95099 1041.4019 174.5 1038.8438 C 184.62957 1030.8652 184.40571 1027.0257 185 1024.5938 C 185.3444 1021.5072 185.59442 1015.8574 185.0625 1013.5938 C 184.40237 1009.9838 183.72309 1007.8641 182.5625 1005.1562 C 181.3313 1002.2838 181.32845 1002.2047 181.28125 997.3125 C 181.20742 989.6469 179.8043 984.97486 176.3125 980.65625 C 173.15699 976.75354 169.65478 974.34965 162.5 971.15625 C 157.80875 969.06239 157.52807 968.8833 155.125 966.40625 C 153.04075 964.25783 152.15968 963.60716 149.8125 962.53125 C 146.46572 960.99709 142.57464 960.22248 138.84375 960.34375 C 137.3905 960.39096 136.12508 960.33507 136 960.21875 C 135.72284 959.96103 137.46713 955.9388 139.375 952.46875 C 141.20956 949.132 144.97199 945.59316 148.375 943.96875 C 154.34805 941.11758 162.69997 939.16098 174.78125 937.8125 C 179.83818 937.24808 191.43811 934.57574 194.65625 933.21875 C 200.71872 930.66242 206.9768 925.85991 213.4375 918.78125 C 215.30346 916.73678 217.04919 914.98009 217.34375 914.875 C 217.63831 914.76986 218.33101 914.6875 218.875 914.6875 C 220.19907 914.6875 220.58875 913.90958 220.59375 911.25 C 220.59721 909.41358 220.91805 908.16766 222.78125 903.125 C 223.99469 899.84093 225.17973 896.25902 225.40625 895.15625 C 225.8965 892.76961 226.19147 892.34375 227.40625 892.34375 C 229.25069 892.34375 229.50795 891.41584 228.59375 888.03125 C 228.14291 886.36214 228.09841 885.51054 228.375 883.5 C 228.65166 881.48886 228.57348 879.56229 227.90625 873.34375 C 227.45438 869.13236 226.93657 863.26431 226.75 860.28125 C 226.34492 853.80503 225.72951 850.20977 224.3125 845.9375 C 222.04056 839.08761 219.53687 836.01658 213.15625 832.3125 C 210.83442 830.96463 209.02299 829.71138 208.75 829.21875 C 208.4962 828.76074 207.80706 826.80522 207.21875 824.875 C 204.00491 814.33039 198.57661 808.91487 187.59375 805.3125 C 183.76526 804.05676 179.3142 803.17668 171.875 802.25 C 166.85811 801.62506 165.53258 801.33438 163.8125 800.53125 C 158.08065 797.85498 153.29414 796.48916 148.5 796.375 z M 147.65625 798.5625 C 151.98355 798.64132 156.78196 799.67125 160.84375 801.4375 C 163.16705 802.44778 164.28707 803.22743 166.75 805.46875 C 169.95851 808.38858 170.95438 808.85955 168.9375 806.5 C 167.08068 804.32766 167.23401 804.152 170.75 804.40625 C 181.3687 805.17414 191.89637 808.24064 196.96875 812.03125 C 200.84717 814.92961 204.70442 821.90499 205.875 828.15625 C 206.7732 832.95287 205.51174 845.4144 203.96875 847 C 203.33585 847.65037 200.75311 848.3125 198.8125 848.3125 C 196.61891 848.3125 196.10949 847.5635 193.65625 840.71875 C 191.07293 833.51109 190.07925 831.83438 186 827.96875 C 182.58783 824.73526 176.44726 819.68455 175.21875 819.09375 C 174.34299 818.6726 174.256 818.67009 174.25 819.1875 C 174.24674 819.50012 175.81278 821.10868 177.75 822.78125 C 184.07981 828.24631 187.46259 831.54986 188.40625 833.1875 C 189.55669 835.18402 193.21307 844.95861 193.0625 845.625 C 192.97997 845.99022 191.81093 845.46473 188.34375 843.53125 C 185.79647 842.11075 182.4748 840.14975 180.96875 839.1875 C 177.81906 837.17508 176.52501 836.76568 170.15625 835.8125 C 163.32752 834.79049 156.03504 834.84108 151.625 835.9375 C 145.89166 837.36292 142.86031 838.66901 134.34375 843.4375 C 120.18319 851.36609 119.86064 851.62851 111.0625 860.5 C 108.26556 863.32026 106.91375 864.43629 105.46875 865.09375 C 103.61044 865.93926 103.42003 865.96018 99.09375 865.78125 C 95.532134 865.63394 94.65625 865.65974 94.65625 866 C 94.65625 866.28564 95.367974 866.48753 96.8125 866.625 C 100.59172 866.98467 101.53125 867.17771 101.53125 867.5625 C 101.53125 868.06016 100.15095 869.97246 97.78125 872.71875 C 96.721365 873.94707 94.622739 876.53853 93.125 878.46875 C 89.339085 883.34787 88.326607 884.28851 83.9375 887.03125 C 78.717317 890.29331 72.505283 895.45497 73.125 896.03125 C 73.208305 896.10872 75.720891 894.58752 78.6875 892.65625 C 81.654117 890.72495 84.229222 889.15625 84.40625 889.15625 C 84.893434 889.15625 84.86267 889.3361 83.03125 896.09375 C 82.093758 899.55298 80.163646 905.45037 78.75 909.1875 C 77.336362 912.92462 75.792567 917.6032 75.3125 919.59375 C 74.112416 924.56984 73.063192 931.00967 73.0625 933.5 C 73.061665 936.16306 73.405121 938.90625 73.75 938.90625 C 74.160273 938.90625 74.689955 937.08661 74.9375 934.78125 C 75.059972 933.64067 75.799602 929.17411 76.5625 924.875 C 77.894861 917.36687 78.059492 916.74909 81 908.78125 C 84.365916 899.66071 85.356917 896.65047 86.46875 891.875 C 87.375051 887.98227 88.198659 886.405 90.8125 883.71875 C 91.922336 882.57817 94.890839 879.1333 97.40625 876.0625 C 103.09455 869.11827 103.55482 868.62401 106.125 866.71875 C 107.27185 865.86861 111.31999 862.31151 115.09375 858.84375 C 118.86751 855.37597 122.86787 851.98158 124 851.28125 C 125.13214 850.58091 130.00766 847.82332 134.84375 845.15625 C 144.2855 839.9493 147.60301 838.58204 153.21875 837.59375 C 158.5049 836.66345 171.14332 837.49072 177.0625 839.15625 C 177.93544 839.40187 180.07505 840.5435 181.84375 841.6875 C 183.61244 842.8315 186.53224 844.59242 188.3125 845.59375 C 191.45083 847.35896 194.32056 849.4796 197.59375 852.46875 C 198.86764 853.63209 199.33768 854.42606 200.0625 856.46875 C 201.65945 860.96932 202.10505 864.15022 202.15625 871.28125 C 202.2082 878.51407 201.91252 880.77151 199.8125 888.34375 C 196.34239 900.85624 195.80619 901.97835 188.125 912.75 C 182.12999 921.15707 179.16334 924.13517 172.03125 928.875 C 168.77954 931.03602 156.5941 937.07287 151.09375 939.25 C 146.8957 940.91164 144.58205 942.16745 142.75 943.8125 C 140.70741 945.64665 137.08549 951.03794 135.625 954.40625 C 133.96859 958.22642 132.21507 964.78118 131.5625 969.5625 C 130.77444 975.33642 130.8973 975.07821 127.90625 978.03125 C 126.40574 979.51269 125.2601 980.85836 125.375 981.03125 C 125.66072 981.46116 126.4592 981.03937 128.5 979.34375 C 131.3986 976.93538 133.46233 975.625 134.3125 975.625 C 134.99327 975.625 135.36005 976.03719 136.4375 978.09375 C 138.01717 981.1089 138.07126 982.55567 136.75 985.625 C 136.23572 986.81966 135.91289 987.88993 136.03125 988 C 136.4746 988.41233 138.25062 986.10373 138.78125 984.40625 C 139.0842 983.4371 139.44195 982.625 139.59375 982.625 C 139.74554 982.625 141.1676 983.5968 142.75 984.78125 C 146.13267 987.31325 148.60758 988.56198 152.84375 989.90625 C 154.54603 990.44642 157.46096 991.55857 159.34375 992.375 C 161.22654 993.19143 164.54082 994.43315 166.6875 995.125 C 171.84054 996.78575 173.65977 997.67666 175.875 999.625 C 179.69065 1002.981 181.35632 1006.2748 182.375 1012.4688 C 183.02472 1016.4192 182.83207 1023.0738 182 1025.8438 C 179.63513 1033.7164 172.27019 1039.5367 162.1875 1041.4688 C 158.59397 1042.1577 145.87815 1042.179 142.78125 1041.5 C 139.46674 1040.7732 137.02913 1039.6079 122.28125 1031.7812 C 114.73069 1027.7741 106.70175 1023.5809 104.4375 1022.4688 C 98.340789 1019.4742 96.328824 1017.4883 88.90625 1007.125 C 80.882704 995.92261 80.170869 994.54464 77.6875 985.1875 C 74.597095 973.54319 72.307024 970.57424 74.625 981.21875 C 76.404735 989.3916 78.706129 995.30202 82.28125 1000.8438 C 86.703647 1007.6988 93.258731 1016.1425 96.53125 1019.1875 C 99.29415 1021.7583 100.11979 1022.2873 103.9375 1024.0938 C 106.2961 1025.2098 109.83127 1027.0049 111.8125 1028.0938 C 117.50386 1031.2217 134.4677 1040.197 136.375 1041.0938 C 137.32649 1041.541 138.9856 1042.1463 140.0625 1042.4375 C 141.1394 1042.7286 142 1043.1033 142 1043.25 C 142 1043.7233 138.73852 1046.2459 137 1047.125 C 136.07183 1047.5943 134.10325 1048.3874 132.59375 1048.875 C 129.94408 1049.7309 129.5772 1049.7738 122.125 1049.8438 C 117.87952 1049.8835 113.63094 1049.7807 112.6875 1049.625 C 109.9533 1049.1738 105.11912 1047.8066 102.6875 1046.7812 C 97.942934 1044.7806 96.377532 1043.5852 87.46875 1035.4375 C 82.657202 1031.0371 75.152324 1024.4188 70.8125 1020.7188 C 58.809198 1010.4852 53.80445 1005.3687 48.71875 998.28125 C 44.70045 992.68135 40.811948 984.26609 38.28125 975.59375 C 35.434967 965.83993 33.742168 952.12934 33.0625 933.34375 C 32.802385 926.15432 32.595279 925.10427 30.96875 923.71875 L 29.75 922.6875 L 31.6875 920.625 C 33.245778 918.97439 33.593459 918.42917 33.34375 917.96875 C 33.134251 917.58252 33.398533 915.26431 34.15625 911 C 35.935183 900.98843 35.94911 900.50676 34.65625 898.125 C 33.486299 895.96961 33.525106 895.53125 34.84375 895.53125 C 36.229162 895.53125 37.6552 894.64961 38.34375 893.375 C 38.697269 892.7206 39.877945 890.07154 40.9375 887.5 C 43.763144 880.64216 50.332948 866.8947 54.09375 860 C 59.887835 849.37769 64.550739 843.07445 70.8125 837.3125 C 75.255963 833.22371 79.176512 830.52989 84.3125 828.09375 C 89.263801 825.7452 93.285168 824.49895 98.625 823.59375 C 107.33529 822.11718 127.45307 817.88229 142.875 814.28125 C 148.20839 813.0359 149.68101 812.79747 153.6875 812.65625 L 158.3125 812.5 L 164.53125 814.28125 C 167.94044 815.26757 170.90605 816.09375 171.125 816.09375 C 172.60214 816.09375 169.1685 813.8618 165.6875 812.5625 C 160.00947 810.44316 154.90908 809.92619 149.59375 810.9375 C 147.63343 811.31049 145.58041 811.625 145.03125 811.625 C 144.48209 811.625 143.59121 811.8557 143.03125 812.125 C 142.47128 812.39429 136.64739 813.73726 130.09375 815.125 C 123.54012 816.51273 115.86157 818.13588 113.03125 818.75 C 105.12548 820.46539 99.094559 821.61044 98.875 821.40625 C 98.479208 821.03818 99.672123 820.15433 105.09375 816.8125 C 113.41478 811.68349 118.71102 808.8009 127.59375 804.625 C 136.05705 800.64629 139.50933 799.39714 143.53125 798.8125 C 144.82538 798.62438 146.21382 798.53623 147.65625 798.5625 z M 209.03125 832.75 C 209.52951 832.91078 210.17355 833.23615 211.0625 833.65625 C 215.80398 835.89696 218.44066 838.30002 220.59375 842.375 C 222.66056 846.28666 223.34902 849.37802 224.1875 858.125 C 224.36329 859.9588 224.33633 860.4435 223.96875 860.4375 C 223.71374 860.43355 221.48419 858.48142 219.03125 856.125 C 214.70897 851.97278 214.47168 851.81172 210.9375 850.25 C 206.417 848.25242 206.30941 848.0637 207.03125 844 C 207.31178 842.42074 207.52825 839.23128 207.53125 836.90625 C 207.53651 833.19802 207.53648 832.26765 209.03125 832.75 z M 202.75 850 C 203.29094 850.02192 204.09123 850.20836 205.59375 850.53125 C 211.22581 851.74156 215.16058 853.99736 219.25 858.375 C 223.90766 863.36095 225.18933 866.49357 226.09375 875.25 C 226.36101 877.83709 226.35463 879.75264 226.0625 882.4375 C 225.72845 885.50761 225.73625 886.40669 226.15625 887.875 L 226.65625 889.625 L 225.3125 890.75 C 224.0754 891.77463 223.89676 892.14486 223.125 895.21875 C 222.07626 899.39582 221.19725 901.90835 219.5 905.65625 C 218.63148 907.57415 218.1875 909.07627 218.1875 910 C 218.1875 911.28951 218.04143 911.51439 216.625 912.59375 C 215.77105 913.2445 213.94378 915.07981 212.5625 916.6875 C 207.75458 922.2835 201.68256 927.43988 197.15625 929.78125 C 191.04249 932.94377 184.80828 934.40306 168.46875 936.5 C 158.91286 937.72638 158.76839 937.69144 164.9375 934.8125 C 169.39466 932.73248 172.92522 930.46822 177.53125 926.78125 C 183.11805 922.30921 185.17259 920.0115 190.96875 911.65625 C 197.09021 902.83211 197.31575 902.4089 199.96875 894.625 C 203.67976 883.73694 204.99822 876.65097 204.625 869.53125 C 204.32373 863.7841 203.97243 861.91317 202.21875 856.75 C 201.37937 854.27871 200.6875 851.93862 200.6875 851.5625 C 200.6875 851.18444 201.05534 850.63374 201.53125 850.34375 C 201.93439 850.0981 202.20906 849.97808 202.75 850 z M 139.90625 962.84375 C 144.38167 962.84375 146.99966 963.32743 149.625 964.65625 C 151.27555 965.4917 154.375 968.26772 154.375 968.90625 C 154.375 969.22504 152.59322 969.38389 152.28125 969.09375 C 152.19833 969.01664 149.94983 968.66846 147.3125 968.3125 C 141.82107 967.57133 139.52315 966.99208 137.90625 965.96875 C 136.4864 965.0701 135.34762 963.6519 135.65625 963.1875 C 135.80438 962.96462 137.34977 962.84375 139.90625 962.84375 z M 134.875 965.78125 C 135.19051 965.8195 135.66612 966.13828 136.4375 966.78125 C 138.73603 968.69717 140.83222 969.38825 147.5 970.34375 C 156.09029 971.57478 160.9093 972.6921 164.125 974.21875 C 170.30557 977.153 173.75799 980.01886 176.03125 984.09375 C 178.19689 987.97572 178.51875 989.30699 178.53125 994.25 C 178.53804 996.9405 178.42674 998.72245 178.21875 998.78125 C 178.03007 998.83462 176.93654 998.23667 175.8125 997.4375 C 173.18014 995.56595 170.90552 994.50862 166.03125 992.90625 C 163.86134 992.1929 160.74385 991.02174 159.09375 990.3125 C 157.44366 989.60326 154.22298 988.37965 151.9375 987.59375 C 146.97842 985.88849 145.1973 984.96245 142.75 982.8125 C 140.81739 981.11472 137.3758 976.53732 135.46875 973.125 C 134.31336 971.05749 133.78569 968.25169 134.25 966.53125 C 134.39359 965.99921 134.55949 965.743 134.875 965.78125 z "
         inkscape:radius="1.3026356"
         sodipodi:type="inkscape:offset" />
    </g>
  </g>
</svg>
